<?xml version="1.0" encoding="utf-8"?>
<!-- Generator: Adobe Illustrator 24.1.1, SVG Export Plug-In . SVG Version: 6.00 Build 0)  -->
<svg version="1.1" id="Outline" xmlns="http://www.w3.org/2000/svg" xmlns:xlink="http://www.w3.org/1999/xlink" x="0px" y="0px"
	 viewBox="0 0 512 512" style="enable-background:new 0 0 512 512;" xml:space="preserve">
<style type="text/css">
	.st0{fill:#FF5A5F;}
</style>
<path class="st0" d="M481.2,291.5l-40.5-145.8C411.2,39.8,301.6-22.1,195.8,7.3C125,27,70.9,84.1,55,155.7L23.6,296.9
	c-12.8,57.5,23.5,114.5,81,127.3c7.6,1.7,15.4,2.5,23.1,2.5h23.8c11.7,57.7,68,95,125.8,83.3c42-8.5,74.8-41.3,83.3-83.3h17.9
	c58.9,0,106.7-47.7,106.7-106.7C485.1,310.4,483.8,300.8,481.2,291.5L481.2,291.5z M256,469.3c-27-0.1-51.1-17.2-60.1-42.7h120.1
	C307.1,452.1,283,469.2,256,469.3z M429.4,358.7c-12.1,16-30.9,25.4-51,25.3H127.7c-35.3,0-64-28.7-64-64c0-4.7,0.5-9.3,1.5-13.9
	L96.6,165C115.3,80.8,198.8,27.7,283,46.4c56.3,12.5,101.1,55.1,116.6,110.6l40.5,145.8C445.5,322.1,441.5,342.8,429.4,358.7z"/>
</svg>
